<svg xmlns="http://www.w3.org/2000/svg" xmlns:xlink="http://www.w3.org/1999/xlink" version="1.1" id="Capa_1" x="0px" y="0px" viewBox="0 0 512 512" style="enable-background:new 0 0 512 512;" xml:space="preserve">
<g>
	<g>
		<path d="M437.019,74.981C388.667,26.629,324.38,0,256,0S123.333,26.629,74.981,74.981S0,187.62,0,256    c0,56.305,18.07,109.825,51.44,153.969c1.755-27.866,24.971-50.002,53.271-50.002c29.439,0,53.39,23.951,53.39,53.39v10.723    c0,12.897,10.493,23.39,23.39,23.39c12.897,0,23.39-10.493,23.39-23.39v-11.126c0-29.439,23.951-53.39,53.39-53.39    c29.439,0,53.39,23.951,53.39,53.39v11.126c0,12.897,10.493,23.39,23.39,23.39c12.897,0,23.39-10.493,23.39-23.39v-11.126    c0-29.439,23.951-53.39,53.39-53.39c26.578,0,48.677,19.524,52.722,44.981C495.369,361.473,512,310.018,512,256    C512,187.62,485.371,123.333,437.019,74.981z M249.609,29.746l26.171,14.666L249.566,91.19l-26.171-14.666L249.609,29.746z     M322.637,122.25l-2.72,29.877l-53.401-4.861l2.72-29.876L322.637,122.25z M64.431,305.383l-29.791-3.539l6.326-53.248    l29.791,3.539L64.431,305.383z M52.942,152.255l24.246-47.828l26.758,13.565L79.7,165.82L52.942,152.255z M98.43,199.704    l50.675-17.534l9.81,28.351l-50.675,17.534L98.43,199.704z M132.643,347.32l-18.092-50.478l28.241-10.122l18.092,50.478    L132.643,347.32z M142.976,94.318l19.802-22.536l40.281,35.394l-19.802,22.536L142.976,94.318z M256,329.83    c-40.71,0-73.83-33.12-73.83-73.83c0-40.71,33.12-73.83,73.83-73.83s73.83,33.12,73.83,73.83    C329.83,296.71,296.71,329.83,256,329.83z M352.844,96.546l11.284-27.797l49.685,20.169l-11.284,27.797L352.844,96.546z     M358.841,229.966l6.327-53.248l29.79,3.54l-6.327,53.248L358.841,229.966z M423.457,335.312l-30.123-44.362l24.819-16.853    l30.123,44.362L423.457,335.312z M454.364,242.269l-18.092-50.479l28.241-10.122l18.092,50.479L454.364,242.269z" fill="#e65e2b"/>
	</g>
</g>
<g>
	<g>
		<path d="M411.831,389.563c-12.897,0-23.39,10.493-23.39,23.39v11.126c0,29.439-23.951,53.39-53.39,53.39    c-29.439,0-53.39-23.951-53.39-53.39v-11.126c0-12.897-10.493-23.39-23.39-23.39c-12.897,0-23.39,10.493-23.39,23.39v11.126    c0,29.439-23.951,53.39-53.39,53.39c-29.439,0-53.39-23.951-53.39-53.39v-10.723c0-12.897-10.493-23.39-23.39-23.39    c-12.897,0-23.39,10.493-23.39,23.39v29.768C128.884,487.599,190.563,512,256,512c67.54,0,131.077-25.994,179.22-73.225v-25.821    C435.22,400.056,424.728,389.563,411.831,389.563z" fill="#e65e2b"/>
	</g>
</g>
<g>
</g>
<g>
</g>
<g>
</g>
<g>
</g>
<g>
</g>
<g>
</g>
<g>
</g>
<g>
</g>
<g>
</g>
<g>
</g>
<g>
</g>
<g>
</g>
<g>
</g>
<g>
</g>
<g>
</g>
</svg>