<svg xmlns="http://www.w3.org/2000/svg" id="Layer_1" enable-background="new 0 0 32 32" viewBox="0 0 32 32"><g><path d="m7.5 21.75h-3c-.14 0-.25.11-.25.25v4c0 .14.11.25.25.25h3c.14 0 .25-.11.25-.25v-4c0-.14-.11-.25-.25-.25zm-.25 4h-2.5v-3.5h2.5z" fill="#f1f1f1"/><path d="m12.5 17.75h-3c-.14 0-.25.11-.25.25v8c0 .14.11.25.25.25h3c.14 0 .25-.11.25-.25v-8c0-.14-.11-.25-.25-.25zm-.25 8h-2.5v-7.5h2.5z" fill="#f1f1f1"/><path d="m17.5 13.75h-3c-.14 0-.25.11-.25.25v12c0 .14.11.25.25.25h3c.14 0 .25-.11.25-.25v-12c0-.14-.11-.25-.25-.25zm-.25 12h-2.5v-11.5h2.5z" fill="#f1f1f1"/><path d="m22.5 9.75h-3c-.14 0-.25.11-.25.25v16c0 .14.11.25.25.25h3c.14 0 .25-.11.25-.25v-16c0-.14-.11-.25-.25-.25zm-.25 16h-2.5v-15.5h2.5z" fill="#f1f1f1"/><path d="m27.5 5.75h-3c-.14 0-.25.11-.25.25v20c0 .14.11.25.25.25h3c.14 0 .25-.11.25-.25v-20c0-.14-.11-.25-.25-.25zm-.25 20h-2.5v-19.5h2.5z" fill="#f1f1f1"/></g></svg>