<svg xmlns="http://www.w3.org/2000/svg" id="solid" height="512" viewBox="0 0 32 32" width="512"><path d="m14.79 21.836h2.42v2.42h-2.42z" fill="#f1f1f1"/><path d="m30.6891 13.9229v3.2186c-3.5816 2.3474-7.2841 3.8235-11.0592 4.4164v-.9316c0-.6655-.5445-1.21-1.21-1.21h-4.8399c-.6655 0-1.21.5445-1.21 1.21v.9316c-3.7751-.5808-7.4777-2.0569-11.0592-4.4043v-3.2307c0-1.2462 1.0164-2.2505 2.2627-2.2505h24.853c1.2462 0 2.2627 1.0043 2.2627 2.2505z" fill="#f1f1f1"/><path d="m19.6299 23.99c3.7751-.5203 7.4777-1.8633 11.0592-3.9929v9.7524c0 1.2463-1.0164 2.2505-2.2627 2.2505h-24.8528c-1.2463 0-2.2627-1.0042-2.2627-2.2505v-9.7403c3.5816 2.1296 7.2841 3.4605 11.0592 3.9808v1.4762c0 .6655.5445 1.21 1.21 1.21h4.8399c.6655 0 1.21-.5445 1.21-1.21v-1.4762z" fill="#f1f1f1"/><path d="m10.8009 14.5575v-5.1991c0-2.8714 2.3277-5.1991 5.1991-5.1991s5.1991 2.3277 5.1991 5.1991v5.1991h4.1593v-5.1991c0-5.1685-4.1899-9.3584-9.3584-9.3584s-9.3584 4.1899-9.3584 9.3584v5.1991z" fill="#f1f1f1"/></svg>