<?xml version="1.0" encoding="iso-8859-1"?>
<!-- Generator: Adobe Illustrator 19.0.0, SVG Export Plug-In . SVG Version: 6.00 Build 0)  -->
<svg version="1.1" id="Layer_1" xmlns="http://www.w3.org/2000/svg" xmlns:xlink="http://www.w3.org/1999/xlink" x="0px" y="0px"
	 viewBox="0 0 509.856 509.856" style="enable-background:new 0 0 509.856 509.856;" xml:space="preserve">
<g>
	<g>
		<path d="M493.856,238.928H270.928v-64h32c8.832,0,16-7.168,16-16v-96c0-8.832-7.168-16-16-16h-96c-8.832,0-16,7.168-16,16v96
			c0,8.832,7.168,16,16,16h32v64H16c-8.832,0-16,7.168-16,16c0,8.832,7.168,16,16,16h78.928v64h-32c-8.832,0-16,7.168-16,16v96
			c0,8.832,7.168,16,16,16h96c8.832,0,16-7.168,16-16v-96c0-8.832-7.168-16-16-16h-32v-64h256v64h-32c-8.832,0-16,7.168-16,16v96
			c0,8.832,7.168,16,16,16h96c8.832,0,16-7.168,16-16v-96c0-8.832-7.168-16-16-16h-32v-64h78.928c8.832,0,16-7.168,16-16
			C509.856,246.096,502.688,238.928,493.856,238.928z M142.928,366.928v64h-64v-64H142.928z M222.928,142.928v-64h64v64H222.928z
			 M430.928,366.928v64h-64v-64H430.928z"/>
	</g>
</g>
<g>
</g>
<g>
</g>
<g>
</g>
<g>
</g>
<g>
</g>
<g>
</g>
<g>
</g>
<g>
</g>
<g>
</g>
<g>
</g>
<g>
</g>
<g>
</g>
<g>
</g>
<g>
</g>
<g>
</g>
</svg>
