<svg id="Layer_1" viewBox="0 0 512 512" xmlns="http://www.w3.org/2000/svg" data-name="Layer 1"><path d="m98.556 512h314.888a33.872 33.872 0 0 0 33.834-33.834v-382.537a33.872 33.872 0 0 0 -33.834-33.829h-57.069v-13.638a20.758 20.758 0 0 0 -20.734-20.734h-39.883a42.529 42.529 0 0 0 -79.516 0h-39.883a20.758 20.758 0 0 0 -20.734 20.734v13.638h-57.069a33.872 33.872 0 0 0 -33.834 33.829v382.537a33.872 33.872 0 0 0 33.834 33.834zm81.069-460.572h46.045a12 12 0 0 0 11.941-10.812 18.484 18.484 0 0 1 36.778 0 12 12 0 0 0 11.941 10.812h46.045v36.972h-152.75zm-90.9 44.2a9.846 9.846 0 0 1 9.831-9.828h57.069v5.874a20.758 20.758 0 0 0 20.734 20.726h159.282a20.758 20.758 0 0 0 20.734-20.734v-5.866h57.069a9.846 9.846 0 0 1 9.834 9.834v382.532a9.846 9.846 0 0 1 -9.834 9.834h-314.888a9.846 9.846 0 0 1 -9.834-9.834zm33.423 85.118a12 12 0 0 1 17.96-15.919l15.005 16.929 38.569-43.515a12 12 0 1 1 17.96 15.919l-47.548 53.647a12 12 0 0 1 -17.961 0zm102.464-1.546a12 12 0 0 1 12-12h144.263a12 12 0 0 1 0 24h-144.263a12 12 0 0 1 -12-12zm-102.467 115.42a12 12 0 1 1 17.955-15.92l15.005 16.928 38.569-43.514a12 12 0 1 1 17.96 15.919l-47.544 53.647a12 12 0 0 1 -17.96 0zm102.467-1.547a12 12 0 0 1 12-12h144.263a12 12 0 0 1 0 24h-144.263a12 12 0 0 1 -12-12zm-102.467 115.419a12 12 0 0 1 17.96-15.919l15.005 16.927 38.569-43.515a12 12 0 0 1 17.96 15.919l-47.549 53.649a12 12 0 0 1 -17.96 0zm102.467-1.547a12 12 0 0 1 12-12h144.263a12 12 0 0 1 0 24h-144.263a12 12 0 0 1 -12-12z"/></svg>