<?xml version="1.0"?>
<svg xmlns="http://www.w3.org/2000/svg" viewBox="0 0 64 64"><g data-name="20 Group" id="_20_Group"><g><path d="M36.831,30.749a10,10,0,1,0-9.662,0A16.026,16.026,0,0,0,16,46v2a4,4,0,0,0,4,4H44a4,4,0,0,0,4-4V46A16.026,16.026,0,0,0,36.831,30.749ZM24,22a8,8,0,1,1,8,8A8.009,8.009,0,0,1,24,22ZM46,48a2,2,0,0,1-2,2H20a2,2,0,0,1-2-2V46a14,14,0,0,1,28,0Z"/><path d="M56.975,33.755a7,7,0,1,0-7.951,0,11.075,11.075,0,0,0-2.652,1.481,1,1,0,0,0,1.207,1.594A8.916,8.916,0,0,1,53,35a9.01,9.01,0,0,1,9,9v4a2,2,0,0,1-2,2H49.188a1,1,0,0,0,0,2H60a4,4,0,0,0,4-4V44A11.008,11.008,0,0,0,56.975,33.755ZM48,28a5,5,0,1,1,5,5A5.006,5.006,0,0,1,48,28Z"/><path d="M17.628,35.235a11.075,11.075,0,0,0-2.652-1.481,7,7,0,1,0-7.951,0A11.008,11.008,0,0,0,0,44v4a4,4,0,0,0,4,4H14.812a1,1,0,0,0,0-2H4a2,2,0,0,1-2-2V44a9.01,9.01,0,0,1,9-9,8.916,8.916,0,0,1,5.421,1.829,1,1,0,0,0,1.207-1.594ZM6,28a5,5,0,1,1,5,5A5.006,5.006,0,0,1,6,28Z"/></g></g></svg>
